<?xml version="1.0" encoding="utf-8"?><svg viewBox="0 0 427 226" xmlns="http://www.w3.org/2000/svg" xmlns:xlink="http://www.w3.org/1999/xlink"><style>:root>svg{display:none}:root>svg:target{display:block}</style><svg fill="none" viewBox="0 0 32 32" id="arrow_cards" xmlns="http://www.w3.org/2000/svg"><path d="M8.607 23.643l14-14M14.947 9.054h8.25v8.25" stroke="#fff" stroke-width="2" stroke-linecap="round" stroke-linejoin="round"/></svg><svg fill="none" viewBox="0 0 48 48" id="arrow_hover" xmlns="http://www.w3.org/2000/svg"><path d="M12.911 35.464l21-21M22.42 13.58h12.375v12.374" stroke="#fff" stroke-width="2" stroke-linecap="round" stroke-linejoin="round"/></svg><svg fill="none" viewBox="0 0 50 111" id="arrow_up" xmlns="http://www.w3.org/2000/svg"><path fill-rule="evenodd" clip-rule="evenodd" d="M27.777 11.166v99.456h-5.555V11.166L4.742 28.51.813 24.613 25 .615l24.186 23.998-3.928 3.897-17.48-17.344z" fill="#fff"/></svg><svg fill="none" viewBox="0 0 40 40" id="be" xmlns="http://www.w3.org/2000/svg"><path d="M20 40c11.046 0 20-8.954 20-20S31.046 0 20 0 0 8.954 0 20s8.954 20 20 20z" fill="#BDCDD8"/><path d="M28.77 15.025h-5.762v-1.431h5.763v1.431zm-9.599 5.87c.372.576.558 1.276.558 2.096 0 .85-.21 1.611-.636 2.284a3.96 3.96 0 01-1.012 1.124c-.456.35-.995.59-1.615.719a9.985 9.985 0 01-2.02.193H8V13h6.911c1.743.028 2.978.533 3.707 1.524.438.608.654 1.338.654 2.186 0 .875-.22 1.575-.661 2.107-.246.298-.609.569-1.09.814.728.266 1.28.686 1.65 1.264zm-7.87-2.253h3.028c.622 0 1.125-.118 1.513-.355.387-.236.58-.655.58-1.258 0-.666-.256-1.107-.769-1.32-.44-.148-1.005-.224-1.689-.224H11.3v3.157zm5.413 4.145c0-.743-.304-1.257-.91-1.533-.34-.157-.818-.237-1.432-.243H11.3v3.814h3.025c.621 0 1.102-.081 1.449-.25.626-.313.94-.906.94-1.788zm14.195-2.328c.07.468.101 1.147.088 2.035h-7.463c.04 1.03.396 1.751 1.07 2.163.408.259.9.385 1.478.385.61 0 1.106-.154 1.488-.47.208-.168.392-.405.55-.704h2.736c-.072.609-.401 1.226-.993 1.853-.917.997-2.203 1.497-3.855 1.497-1.365 0-2.568-.422-3.611-1.262-1.04-.843-1.563-2.21-1.563-4.106 0-1.779.469-3.14 1.41-4.087.945-.95 2.164-1.422 3.667-1.422.891 0 1.694.16 2.41.48.715.32 1.305.824 1.77 1.517.421.611.692 1.317.818 2.12zm-2.693.267c-.05-.712-.288-1.252-.716-1.62-.425-.37-.956-.555-1.589-.555-.689 0-1.22.198-1.599.588-.38.389-.617.918-.714 1.587h4.618z" fill="#2E3646"/></svg><svg fill="none" viewBox="0 0 233 46" id="elasticsearch" xmlns="http://www.w3.org/2000/svg"><path d="M62.135 29.84c-2.314 0-4.117-.673-5.43-2.021-1.31-1.348-1.948-3.207-1.948-5.575 0-2.423.6-4.336 1.821-5.72 1.203-1.385 2.879-2.077 4.992-2.077 1.968 0 3.516.6 4.645 1.785 1.13 1.184 1.713 2.842 1.713 4.919v1.712h-9.91c.036 1.44.437 2.55 1.165 3.334.73.784 1.768 1.166 3.116 1.166.874 0 1.694-.09 2.459-.255.765-.164 1.567-.437 2.441-.82v2.569c-.765.364-1.548.62-2.332.784-.82.127-1.712.2-2.732.2zm-.565-13.007c-1.002 0-1.804.31-2.423.948-.601.637-.965 1.566-1.075 2.787h6.759c-.018-1.22-.31-2.15-.893-2.787-.583-.638-1.366-.948-2.368-.948zM74.67 29.585H71.52V8.654h3.151v20.932zM88.495 29.586l-.637-2.077h-.11c-.71.91-1.439 1.53-2.168 1.858-.728.328-1.657.492-2.805.492-1.457 0-2.605-.4-3.425-1.184-.82-.784-1.239-1.913-1.239-3.352 0-1.53.565-2.697 1.713-3.462 1.13-.783 2.878-1.202 5.21-1.275l2.569-.073v-.801c0-.948-.219-1.658-.674-2.132-.438-.473-1.13-.71-2.059-.71-.765 0-1.494.109-2.186.328-.692.218-1.366.491-2.022.801l-1.02-2.259a11.109 11.109 0 012.641-.965 12.24 12.24 0 012.715-.328c1.894 0 3.315.419 4.28 1.239.966.82 1.44 2.113 1.44 3.88v10.02h-2.223zm-4.7-2.168c1.148 0 2.077-.328 2.77-.966.692-.638 1.038-1.548 1.038-2.696v-1.294l-1.913.073c-1.494.055-2.569.31-3.243.747-.674.438-1.02 1.13-1.02 2.04 0 .657.2 1.185.583 1.55.4.382 1.002.546 1.785.546zM105.164 25.34c0 1.458-.528 2.57-1.584 3.335-1.057.783-2.569 1.166-4.555 1.166-1.986 0-3.57-.292-4.773-.893v-2.733c1.75.802 3.37 1.203 4.883 1.203 1.949 0 2.914-.584 2.914-1.768 0-.382-.109-.692-.328-.947-.218-.255-.564-.51-1.056-.783-.492-.273-1.184-.565-2.059-.911-1.712-.656-2.878-1.33-3.48-1.986-.6-.656-.91-1.53-.91-2.587 0-1.275.51-2.259 1.548-2.97 1.02-.71 2.423-1.056 4.19-1.056 1.749 0 3.407.346 4.956 1.057l-1.021 2.386c-1.603-.656-2.951-1.002-4.044-1.002-1.676 0-2.496.474-2.496 1.421 0 .474.219.856.656 1.184.437.328 1.385.765 2.842 1.33 1.221.474 2.113.911 2.678 1.312.565.4.965.856 1.239 1.366.255.547.4 1.166.4 1.877zM114.13 27.29c.765 0 1.548-.127 2.313-.364v2.387c-.346.145-.801.273-1.348.382a8.81 8.81 0 01-1.712.146c-2.988 0-4.5-1.585-4.5-4.737v-8.016h-2.022v-1.384l2.186-1.148 1.075-3.152h1.931v3.316h4.245v2.386h-4.245v7.962c0 .765.182 1.33.564 1.694.383.346.893.528 1.513.528zM119.21 10.767c0-.565.146-1.002.456-1.312.309-.31.747-.455 1.33-.455.564 0 .983.145 1.293.455.31.31.456.747.456 1.312 0 .546-.146.965-.456 1.275-.31.31-.747.455-1.293.455-.583 0-1.021-.146-1.33-.455-.292-.31-.456-.747-.456-1.275zm3.352 18.819h-3.151V14.72h3.151v14.865zM133.075 29.84c-2.259 0-3.953-.655-5.137-1.967-1.166-1.312-1.749-3.206-1.749-5.647 0-2.496.62-4.427 1.84-5.775 1.221-1.349 2.988-2.023 5.301-2.023 1.567 0 2.988.292 4.245.875l-.947 2.55c-1.33-.528-2.441-.783-3.316-.783-2.568 0-3.862 1.712-3.862 5.12 0 1.675.328 2.914.966 3.752.637.838 1.585 1.257 2.823 1.257a7.978 7.978 0 003.99-1.056v2.75a6.433 6.433 0 01-1.803.711c-.656.164-1.422.237-2.351.237zM150.711 25.34c0 1.458-.528 2.57-1.585 3.335-1.056.783-2.568 1.166-4.554 1.166-1.986 0-3.571-.292-4.773-.893v-2.733c1.749.802 3.37 1.203 4.882 1.203 1.95 0 2.915-.584 2.915-1.768 0-.382-.109-.692-.328-.947-.218-.255-.565-.51-1.056-.783-.492-.273-1.184-.565-2.059-.911-1.713-.656-2.878-1.33-3.48-1.986-.601-.656-.91-1.53-.91-2.587 0-1.275.51-2.259 1.548-2.97 1.02-.71 2.423-1.056 4.19-1.056 1.749 0 3.407.346 4.955 1.057l-1.02 2.386c-1.603-.656-2.951-1.002-4.044-1.002-1.676 0-2.496.474-2.496 1.421 0 .474.219.856.656 1.184.437.328 1.384.765 2.842 1.33 1.22.474 2.113.911 2.678 1.312.565.4.965.856 1.239 1.366.273.547.4 1.166.4 1.877zM160.619 29.84c-2.313 0-4.117-.673-5.428-2.021-1.312-1.348-1.95-3.207-1.95-5.575 0-2.423.601-4.336 1.822-5.72 1.202-1.385 2.878-2.077 4.992-2.077 1.967 0 3.516.6 4.645 1.785 1.13 1.184 1.713 2.842 1.713 4.919v1.712h-9.911c.037 1.44.437 2.55 1.166 3.334.729.784 1.767 1.166 3.115 1.166.875 0 1.695-.09 2.46-.255.765-.164 1.566-.437 2.441-.82v2.569c-.765.364-1.549.62-2.332.784-.82.127-1.712.2-2.733.2zm-.583-13.007c-1.001 0-1.803.31-2.422.948-.602.637-.966 1.566-1.075 2.787h6.758c-.018-1.22-.309-2.15-.892-2.787-.565-.638-1.348-.948-2.369-.948zM179.312 29.586l-.637-2.077h-.11c-.71.91-1.439 1.53-2.168 1.858-.728.328-1.658.492-2.805.492-1.458 0-2.606-.4-3.425-1.184-.82-.784-1.239-1.913-1.239-3.352 0-1.53.565-2.697 1.712-3.462 1.13-.783 2.879-1.202 5.211-1.275l2.568-.073v-.801c0-.948-.218-1.658-.674-2.132-.437-.473-1.129-.71-2.058-.71-.765 0-1.494.109-2.186.328-.693.218-1.367.491-2.023.801l-1.02-2.259a11.107 11.107 0 012.642-.965 12.236 12.236 0 012.714-.328c1.895 0 3.316.419 4.281 1.239.966.82 1.44 2.113 1.44 3.88v10.02h-2.223zm-4.718-2.168c1.147 0 2.077-.328 2.769-.966.692-.638 1.038-1.548 1.038-2.696v-1.294l-1.913.073c-1.493.055-2.568.31-3.242.747-.674.438-1.021 1.13-1.021 2.04 0 .657.201 1.185.583 1.55.401.382 1.002.546 1.786.546zM193.521 14.428c.638 0 1.166.037 1.567.128l-.31 2.951a5.905 5.905 0 00-1.402-.164c-1.257 0-2.296.42-3.079 1.24-.783.819-1.184 1.894-1.184 3.205v7.78h-3.152V14.701h2.478l.419 2.623h.164a5.843 5.843 0 011.931-2.113c.801-.51 1.658-.784 2.568-.784zM203.851 29.84c-2.259 0-3.954-.655-5.138-1.967-1.166-1.312-1.749-3.206-1.749-5.647 0-2.496.62-4.427 1.84-5.775 1.221-1.349 2.988-2.023 5.302-2.023 1.566 0 2.987.292 4.244.875l-.947 2.55c-1.33-.528-2.441-.783-3.315-.783-2.569 0-3.863 1.712-3.863 5.12 0 1.675.328 2.914.966 3.752.637.838 1.585 1.257 2.824 1.257a7.977 7.977 0 003.989-1.056v2.75a6.42 6.42 0 01-1.803.711c-.656.164-1.439.237-2.35.237zM224.565 29.585h-3.17V20.44c0-1.148-.237-2.004-.692-2.568-.455-.565-1.202-.857-2.204-.857-1.33 0-2.296.401-2.933 1.184-.62.802-.93 2.132-.93 3.99v7.378h-3.151V8.653h3.151v5.32c0 .856-.054 1.767-.163 2.733h.2a4.45 4.45 0 011.804-1.676c.765-.401 1.657-.583 2.678-.583 3.607 0 5.41 1.822 5.41 5.447v9.692z" fill="#000"/><path d="M32.604 16.105H20.598c.091.273.164.546.237.82.383 1.384.638 2.805.747 4.28.036.584.073 1.185.073 1.786s-.018 1.202-.073 1.785a22.152 22.152 0 01-.747 4.282c-.073.273-.164.546-.237.82h12.006c3.77 0 6.831-3.08 6.85-6.869 0-3.807-3.06-6.904-6.85-6.904z" fill="#00A9E5"/><path d="M21.602 24.776c.036-.583.073-1.184.073-1.785s-.019-1.202-.073-1.785a22.16 22.16 0 00-.747-4.282c-.073-.273-.164-.546-.237-.82H2.054a23.17 23.17 0 00-1.057 6.887c0 2.405.365 4.718 1.057 6.886H20.6c.09-.273.164-.546.237-.82.4-1.384.655-2.805.765-4.28z" fill="#353535"/><path d="M34.701 32.173H19.762a25.223 25.223 0 01-1.548 2.95 22.545 22.545 0 01-3.06 3.9c-.383.4-.784.765-1.185 1.147a21.695 21.695 0 01-2.623 2.004 22.888 22.888 0 0012.625 3.79c7.961 0 14.975-4.063 19.092-10.22a11.552 11.552 0 00-8.362-3.571z" fill="#00BFB3"/><path d="M18.195 35.106a20.636 20.636 0 001.549-2.952H2.929a23.051 23.051 0 008.416 9.984 21.686 21.686 0 002.624-2.004 17.57 17.57 0 001.184-1.148 21.823 21.823 0 003.042-3.88z" fill="#019B8F"/><path d="M15.153 6.978c-.383-.401-.783-.766-1.184-1.148a21.708 21.708 0 00-2.623-2.004 22.93 22.93 0 00-8.417 9.983h16.833a25.241 25.241 0 00-1.548-2.951 24.323 24.323 0 00-3.061-3.88z" fill="#F9B110"/><path d="M23.97.037c-4.664 0-9 1.402-12.625 3.789a21.7 21.7 0 012.623 2.004c.42.364.802.747 1.185 1.148a23.66 23.66 0 013.06 3.898c.583.93 1.111 1.913 1.549 2.952H34.7c3.28 0 6.249-1.367 8.362-3.553C38.945 4.099 31.932.037 23.97.037z" fill="#FED10A"/></svg><svg fill="none" viewBox="0 0 100 100" id="ellipse" xmlns="http://www.w3.org/2000/svg"><circle cx="50" cy="50" r="50" fill="#C5DBF1"/></svg><svg fill="none" viewBox="0 0 40 40" id="facebook" xmlns="http://www.w3.org/2000/svg"><path d="M20 0c11.046 0 20 8.955 20 20 0 11.046-8.954 20-20 20S0 31.046 0 20C0 8.955 8.954 0 20 0z" fill="#BDCDD8"/><path d="M22.435 13.768h2.578V9.961h-3.03v.014c-3.672.13-4.424 2.194-4.49 4.361h-.008v1.901h-2.5v3.729h2.5v9.995h3.768v-9.995h3.086l.596-3.729h-3.681V15.09c0-.733.487-1.32 1.181-1.32z" fill="#2E3646"/></svg><svg fill="none" viewBox="0 0 233 226" id="first_1" xmlns="http://www.w3.org/2000/svg"><path fill-rule="evenodd" clip-rule="evenodd" d="M2.977 2.564c38.052 8.254 55.745 50.283 86.605 74.012 29.565 22.735 68.106 31.586 89.988 61.779 28.044 38.697 64.019 85.228 49.552 130.767-14.459 45.514-73.089 57.008-115.927 78.169-35.292 17.433-70.85 33.401-110.218 33.54-39.477.139-82.19-5.563-110.785-32.762-27.42-26.08-20.375-70.093-34.324-105.259-15.405-38.835-56.556-69.471-51.429-110.93 5.301-42.87 41.398-76.158 77.5-99.912C-81.066 8.942-37.968-6.319 2.977 2.564z" fill="#E6F2FF"/></svg><svg fill="none" viewBox="0 0 427 101" id="first_2" xmlns="http://www.w3.org/2000/svg"><path fill-rule="evenodd" clip-rule="evenodd" d="M196.977-277.436c38.052 8.254 55.745 50.283 86.604 74.012 29.566 22.735 68.107 31.586 89.989 61.779 28.044 38.697 64.019 85.228 49.552 130.767-14.459 45.514-73.089 57.008-115.927 78.169-35.292 17.433-70.85 33.401-110.218 33.54-39.477.139-82.19-5.563-110.785-32.762C58.772 41.99 65.817-2.024 51.868-37.19 36.464-76.024-4.688-106.66.439-148.12c5.301-42.869 41.398-76.158 77.5-99.912 34.995-23.026 78.093-38.286 119.038-29.404z" fill="#E6F2FF"/></svg><svg fill="none" viewBox="0 0 40 40" id="inst" xmlns="http://www.w3.org/2000/svg"><path d="M20 40c11.046 0 20-8.954 20-20S31.046 0 20 0 0 8.954 0 20s8.954 20 20 20z" fill="#BDCDD8"/><path d="M24.042 10h-8.084A5.965 5.965 0 0010 15.958v8.084A5.965 5.965 0 0015.958 30h8.084A5.965 5.965 0 0030 24.042v-8.084A5.965 5.965 0 0024.042 10zm3.946 14.042a3.946 3.946 0 01-3.946 3.946h-8.084a3.946 3.946 0 01-3.946-3.946v-8.084a3.946 3.946 0 013.946-3.946h8.084a3.946 3.946 0 013.946 3.946v8.084z" fill="#2E3646"/><path d="M20 14.828A5.179 5.179 0 0014.827 20 5.179 5.179 0 0020 25.173 5.179 5.179 0 0025.173 20 5.179 5.179 0 0020 14.828zm0 8.333a3.16 3.16 0 110-6.321 3.16 3.16 0 010 6.321zM25.183 16.105a1.24 1.24 0 100-2.479 1.24 1.24 0 000 2.48z" fill="#2E3646"/></svg><svg fill="none" viewBox="0 0 20 20" id="mail" xmlns="http://www.w3.org/2000/svg"><path d="M3.333 3.333h13.334c.916 0 1.666.75 1.666 1.667v10c0 .917-.75 1.667-1.666 1.667H3.333c-.916 0-1.666-.75-1.666-1.667V5c0-.917.75-1.667 1.666-1.667z" stroke="#999" stroke-linecap="round" stroke-linejoin="round"/><path d="M18.333 5L10 10.833 1.667 5" stroke="#999" stroke-linecap="round" stroke-linejoin="round"/></svg><svg fill="none" viewBox="0 0 7 1" id="minus" xmlns="http://www.w3.org/2000/svg"><path d="M0 .5A.5.5 0 01.5 0h6a.5.5 0 010 1h-6A.5.5 0 010 .5z" fill="#E46868"/></svg><svg fill="none" viewBox="0 0 7 7" id="plus" xmlns="http://www.w3.org/2000/svg"><path fill-rule="evenodd" clip-rule="evenodd" d="M3 6.5a.5.5 0 001 0V4h2.5a.5.5 0 000-1H4V.5a.5.5 0 00-1 0V3H.5a.5.5 0 000 1H3v2.5z" fill="#3454F5"/></svg><svg fill="none" viewBox="0 0 18 18" id="tel" xmlns="http://www.w3.org/2000/svg"><path d="M17.334 13.1v2.5a1.667 1.667 0 01-1.817 1.667 16.492 16.492 0 01-7.192-2.559 16.251 16.251 0 01-5-5A16.492 16.492 0 01.767 2.483 1.667 1.667 0 012.425.667h2.5A1.667 1.667 0 016.592 2.1c.105.8.301 1.586.583 2.342A1.667 1.667 0 016.8 6.2L5.742 7.258a13.334 13.334 0 005 5L11.8 11.2a1.667 1.667 0 011.758-.375c.757.282 1.542.478 2.342.583a1.666 1.666 0 011.434 1.692z" stroke="#999" stroke-linecap="round" stroke-linejoin="round"/></svg></svg>